<?xml version="1.0" encoding="UTF-8"?>
<svg xmlns="http://www.w3.org/2000/svg" xmlns:xlink="http://www.w3.org/1999/xlink" width="50px" height="46px" viewBox="0 0 49 46" version="1.1">
<g id="surface1">
<path style=" stroke:none;fill-rule:evenodd;fill:rgb(0%,0%,0%);fill-opacity:1;" d="M 16.390625 40.914062 C 8.160156 33.507812 9.871094 29.402344 10.070312 18.765625 C 10.070312 18.667969 10.085938 18.574219 10.117188 18.496094 L 8.046875 17.835938 C 7.75 11.210938 11.535156 7.25 16.230469 5.34375 C 17.9375 4.648438 15.078125 0.859375 19.007812 2.316406 C 24.261719 4.265625 35.914062 6.914062 38.671875 10.253906 C 40.914062 12.96875 41.003906 14.4375 40.953125 17.980469 C 40.9375 19.132812 40.761719 20.136719 40.238281 20.515625 C 39.996094 20.6875 39.707031 20.757812 39.371094 20.722656 C 39.371094 27.296875 40.242188 33.515625 35.558594 38.867188 C 32.777344 42.042969 28.585938 44.078125 24.367188 44.011719 C 22.707031 43.984375 21.675781 43.746094 20.242188 43.203125 C 18.824219 42.660156 17.652344 42.050781 16.390625 40.914062 Z M 30.804688 25.226562 C 31.726562 25.226562 32.476562 25.984375 32.476562 26.914062 C 32.476562 27.847656 31.730469 28.609375 30.804688 28.609375 C 29.878906 28.609375 29.132812 27.847656 29.132812 26.914062 C 29.132812 25.984375 29.882812 25.226562 30.804688 25.226562 Z M 18.1875 25.226562 C 19.109375 25.226562 19.859375 25.984375 19.859375 26.914062 C 19.859375 27.847656 19.113281 28.609375 18.1875 28.609375 C 17.265625 28.609375 16.515625 27.847656 16.515625 26.914062 C 16.519531 25.984375 17.265625 25.226562 18.1875 25.226562 Z M 34.601562 24.398438 C 34.839844 24.722656 34.777344 25.1875 34.453125 25.429688 C 34.132812 25.671875 33.675781 25.605469 33.4375 25.28125 C 32.855469 24.492188 32.234375 24.082031 31.582031 23.921875 C 30.917969 23.761719 30.191406 23.867188 29.433594 24.121094 C 29.050781 24.25 28.640625 24.042969 28.515625 23.65625 C 28.390625 23.269531 28.589844 22.851562 28.972656 22.726562 C 29.96875 22.386719 30.957031 22.257812 31.910156 22.488281 C 32.886719 22.722656 33.796875 23.3125 34.601562 24.398438 Z M 17.085938 22.488281 C 18.039062 22.257812 19.027344 22.386719 20.023438 22.726562 C 20.40625 22.855469 20.609375 23.273438 20.480469 23.65625 C 20.351562 24.042969 19.941406 24.25 19.5625 24.121094 C 18.8125 23.863281 18.082031 23.765625 17.414062 23.921875 C 16.765625 24.082031 16.136719 24.496094 15.558594 25.28125 C 15.320312 25.601562 14.867188 25.671875 14.542969 25.429688 C 14.222656 25.1875 14.15625 24.726562 14.394531 24.398438 C 15.207031 23.3125 16.117188 22.722656 17.085938 22.488281 Z M 21.582031 36.753906 C 21.179688 36.53125 21.035156 36.023438 21.257812 35.621094 C 21.476562 35.214844 21.980469 35.066406 22.378906 35.292969 C 23.136719 35.71875 23.871094 35.945312 24.570312 35.964844 C 25.253906 35.976562 25.925781 35.785156 26.59375 35.375 C 26.980469 35.132812 27.488281 35.253906 27.726562 35.644531 C 27.964844 36.035156 27.84375 36.554688 27.457031 36.792969 C 26.515625 37.382812 25.539062 37.652344 24.542969 37.632812 C 23.554688 37.605469 22.570312 37.308594 21.582031 36.753906 Z M 0 44.953125 L 0 37.320312 L 1.957031 37.320312 L 1.957031 43.964844 L 7.074219 43.964844 L 7.074219 45.949219 L 0.976562 45.949219 C 0.4375 45.949219 0 45.503906 0 44.953125 Z M 41.929688 43.964844 L 47.046875 43.964844 L 47.046875 37.324219 L 49.003906 37.324219 L 49.003906 44.957031 C 49.003906 45.503906 48.570312 45.949219 48.027344 45.949219 L 41.933594 45.949219 L 41.933594 43.964844 Z M 0 8.164062 L 0 1.042969 C 0 0.496094 0.4375 0.0507812 0.976562 0.0507812 L 7.070312 0.0507812 L 7.070312 2.035156 L 1.957031 2.035156 L 1.957031 8.167969 L 0 8.167969 Z M 41.929688 0.0507812 L 48.023438 0.0507812 C 48.5625 0.0507812 49 0.496094 49 1.042969 L 49 8.164062 L 47.042969 8.164062 L 47.042969 2.035156 L 41.925781 2.035156 L 41.925781 0.0507812 Z M 21.246094 41.808594 C 22.078125 42.144531 23.632812 42.308594 24.539062 42.308594 C 26.324219 42.308594 28.125 41.902344 29.800781 41.125 C 31.480469 40.351562 33.035156 39.214844 34.304688 37.761719 C 38.578125 32.878906 37.699219 26.648438 37.699219 20.628906 L 37.703125 20.628906 C 37.6875 20.089844 37.605469 19.601562 37.464844 19.152344 C 37.324219 18.71875 37.125 18.34375 36.859375 18.027344 C 35.835938 16.8125 34.871094 16.863281 33.492188 16.933594 C 33.363281 16.9375 33.246094 16.949219 33.066406 16.960938 C 27.609375 17.203125 24.039062 17.199219 21.136719 16.945312 C 18.464844 16.699219 16.371094 16.257812 13.921875 15.601562 C 13.691406 16.152344 13.421875 16.6875 13.113281 17.210938 C 12.710938 17.875 12.25 18.515625 11.71875 19.121094 C 11.535156 29.066406 9.824219 32.78125 17.484375 39.667969 C 17.921875 40.058594 18.378906 40.40625 18.855469 40.707031 C 19.535156 41.128906 20.539062 41.578125 21.246094 41.808594 Z M 21.246094 41.808594 "/>
</g>
</svg>
